<svg width="196" height="117" viewBox="0 0 196 117" fill="none" xmlns="http://www.w3.org/2000/svg">
<rect x="0.5" y="0.5" width="195" height="116" fill="white" stroke="black"/>
<ellipse cx="126.583" cy="30.25" rx="8.16667" ry="7.75" fill="#222222"/>
<path fill-rule="evenodd" clip-rule="evenodd" d="M94.3531 74.813H61.4584C60.4985 74.813 59.9271 73.7419 60.4617 72.9446L86.7955 33.6742C87.2709 32.9654 88.3135 32.9654 88.7888 33.6742L105.129 58.0423L115.434 45.0042C115.914 44.3963 116.836 44.3963 117.317 45.0042L139.339 72.8689C139.961 73.6557 139.4 74.813 138.397 74.813H114.126H94.3531Z" fill="#7E869E" fill-opacity="0.25"/>
<path d="M60.4617 72.9446L60.0464 72.6662H60.0464L60.4617 72.9446ZM86.7955 33.6742L87.2108 33.9527L87.2108 33.9527L86.7955 33.6742ZM88.7888 33.6742L89.2041 33.3958V33.3958L88.7888 33.6742ZM105.129 58.0423L104.714 58.3208C104.803 58.4535 104.95 58.5357 105.11 58.5419C105.27 58.5481 105.423 58.4777 105.522 58.3523L105.129 58.0423ZM115.434 45.0042L115.041 44.6942L115.041 44.6942L115.434 45.0042ZM117.317 45.0042L116.924 45.3142L117.317 45.0042ZM139.339 72.8689L139.731 72.5589V72.5589L139.339 72.8689ZM61.4584 75.313H94.3531V74.313H61.4584V75.313ZM60.0464 72.6662C59.2891 73.7956 60.0985 75.313 61.4584 75.313V74.313C60.8984 74.313 60.5651 73.6882 60.877 73.2231L60.0464 72.6662ZM86.3803 33.3958L60.0464 72.6662L60.877 73.2231L87.2108 33.9527L86.3803 33.3958ZM89.2041 33.3958C88.5307 32.3915 87.0537 32.3915 86.3803 33.3958L87.2108 33.9527C87.4881 33.5392 88.0963 33.5392 88.3736 33.9527L89.2041 33.3958ZM105.545 57.7638L89.2041 33.3958L88.3736 33.9527L104.714 58.3208L105.545 57.7638ZM115.041 44.6942L104.737 57.7323L105.522 58.3523L115.826 45.3142L115.041 44.6942ZM117.709 44.6942C117.028 43.833 115.722 43.833 115.041 44.6942L115.826 45.3142C116.106 44.9596 116.644 44.9596 116.924 45.3142L117.709 44.6942ZM139.731 72.5589L117.709 44.6942L116.924 45.3142L138.947 73.1789L139.731 72.5589ZM138.397 75.313C139.818 75.313 140.612 73.6736 139.731 72.5589L138.947 73.1789C139.309 73.6379 138.982 74.313 138.397 74.313V75.313ZM114.126 75.313H138.397V74.313H114.126V75.313ZM94.3531 75.313H114.126V74.313H94.3531V75.313Z" fill="#222222"/>
</svg>
