<svg width="57" height="49" viewBox="0 0 57 49" fill="none" xmlns="http://www.w3.org/2000/svg">
<path d="M54.2403 21.4237C56.3224 21.4237 57.1917 18.9812 55.5003 17.8553L29.7668 0.76411C29.3994 0.518275 28.9556 0.385742 28.5001 0.385742C28.0445 0.385742 27.6008 0.518275 27.2333 0.76411L1.49976 17.8553C-0.19155 18.975 0.677688 21.4237 2.76656 21.4237H6.93755V44.4334H2.08599C1.7895 44.4334 1.54693 44.6549 1.54693 44.9256V48.1249C1.54693 48.3956 1.7895 48.617 2.08599 48.617H54.9141C55.2106 48.617 55.4532 48.3956 55.4532 48.1249V44.9256C55.4532 44.6549 55.2106 44.4334 54.9141 44.4334H50.0626V21.4237H54.2403ZM28.5001 5.10151L46.7675 17.2339H10.2326L28.5001 5.10151ZM11.7891 21.4237H19.6729V44.4334H11.7891V21.4237ZM24.5245 21.4237H32.4083V44.4334H24.5245V21.4237ZM45.211 44.4334H37.2598V21.4237H45.211V44.4334Z" fill="#FFC700"/>
</svg>
