<svg width="135" height="142" viewBox="0 0 135 142" fill="none" xmlns="http://www.w3.org/2000/svg">
<path fill-rule="evenodd" clip-rule="evenodd" d="M30.0206 128.498C29.0161 128.394 28.0159 128.248 27.0225 128.06C26.2929 127.923 25.6106 127.586 25.0444 127.082C24.4781 126.579 24.0479 125.928 23.7969 125.195C23.546 124.461 23.4833 123.671 23.615 122.904C23.7468 122.136 24.0684 121.419 24.5475 120.824C26.8552 117.963 28.4311 114.529 29.1262 110.849C29.2556 110.168 29.0025 108.973 27.6975 107.636C18.4162 98.1397 12.6562 85.2592 12.6562 71C12.6562 41.2392 37.5637 17.75 67.5 17.75C97.4362 17.75 122.344 41.2392 122.344 71C122.344 100.761 97.4362 124.25 67.5 124.25C62.8144 124.25 58.2581 123.676 53.9044 122.599C46.7879 127.304 38.3839 129.379 30.0206 128.498Z" fill="#497174"/>
<g clip-path="url(#clip0_304_2092)">
<path d="M67.1917 88.2122C65.5002 88.2122 64.0611 88.7585 62.8681 89.8538C61.6743 90.9491 61.0778 92.2796 61.0778 93.8389C61.0778 95.6044 61.6814 96.9873 62.8867 97.9948C64.0964 99.0015 65.5002 99.5053 67.1105 99.5053C68.7481 99.5053 70.1749 99.0087 71.3961 98.0129C72.6172 97.0198 73.2243 95.6297 73.2243 93.8398C73.2243 92.2796 72.642 90.95 71.4764 89.8547C70.3081 88.7585 68.8814 88.2122 67.1917 88.2122ZM84.432 49.4435C82.8825 47.0286 80.6634 45.0922 77.832 43.6957C75.0208 42.3055 71.7455 41.6055 68.0908 41.6055C64.159 41.6055 60.6605 42.4475 57.6958 44.1108C54.7249 45.7732 52.4352 47.9077 50.8805 50.4601C49.3152 53.0206 48.5264 55.5947 48.5264 58.1127C48.5264 59.4604 49.0699 60.7149 50.142 61.8427C51.2193 62.9769 52.5605 63.5522 54.1258 63.5522C56.7905 63.5522 58.617 61.9422 59.5443 58.7938C60.3887 56.1826 61.429 54.1955 62.6325 52.8777C63.7655 51.6368 65.6025 51.0091 68.0917 51.0091C70.2384 51.0091 71.9317 51.626 73.2755 52.8958C74.599 54.1512 75.2422 55.649 75.2422 57.4706C75.2503 58.3526 75.0334 59.2215 74.6131 59.9913C74.1665 60.8132 73.6106 61.5675 72.9614 62.2326C72.2731 62.938 71.1384 64.0026 69.5872 65.3918C67.7802 67.0153 66.3217 68.4417 65.2567 69.6184C64.1305 70.8783 63.2259 72.3288 62.5831 73.9055C61.9117 75.5371 61.572 77.4799 61.572 79.6823C61.572 81.5644 62.0837 83.0215 63.0958 84.0146C64.0972 85.0005 65.344 85.5007 66.8043 85.5007C69.5961 85.5007 71.3493 83.9368 71.8699 81.0118C72.1399 79.7953 72.3367 78.9451 72.4699 78.4594C72.5908 78.0199 72.7655 77.5695 72.9905 77.119C73.2084 76.6831 73.5543 76.1865 74.0175 75.6402C74.502 75.0695 75.1611 74.3957 75.9649 73.6441C78.9728 70.8891 81.094 68.893 82.2711 67.7118C83.4852 66.4916 84.544 65.0309 85.422 63.3649C86.3184 61.6555 86.7746 59.6485 86.7746 57.3973C86.7728 54.5447 85.984 51.8711 84.4267 49.4462" fill="white"/>
</g>
<defs>
<clipPath id="clip0_304_2092">
<rect width="56.4706" height="57.8853" fill="white" transform="translate(39.7061 41.6055)"/>
</clipPath>
</defs>
</svg>
