<svg width="37" height="37" viewBox="0 0 37 37" fill="none" xmlns="http://www.w3.org/2000/svg">
<path d="M7.52157 29.4784L7.8744 29.1256L7.52158 29.4784C7.73099 29.6878 7.99204 29.6913 8.14677 29.6762C8.28732 29.6625 8.45468 29.6205 8.61139 29.5813C8.62031 29.5791 8.62919 29.5768 8.63803 29.5746L13.4588 28.3694C13.4739 28.3656 13.4889 28.3619 13.5038 28.3582C13.7266 28.3028 13.9237 28.2537 14.1028 28.1523C14.2818 28.051 14.4253 27.9071 14.5875 27.7447C14.5983 27.7338 14.6092 27.7229 14.6202 27.7118L26.6893 15.6428L26.7126 15.6195C27.026 15.3061 27.2961 15.0361 27.4833 14.7907C27.6839 14.5278 27.8358 14.2354 27.8358 13.875C27.8358 13.5146 27.6839 13.2222 27.4833 12.9593C27.2961 12.7139 27.026 12.4439 26.7126 12.1305L26.6893 12.1072L24.8927 10.3107L24.8695 10.2874C24.5561 9.97396 24.286 9.70389 24.0407 9.5167C23.7778 9.3161 23.4854 9.16421 23.125 9.16421C22.7646 9.16421 22.4722 9.3161 22.2093 9.5167C21.9639 9.70388 21.6939 9.97394 21.3805 10.2874L21.3572 10.3107L9.28814 22.3797C9.27712 22.3908 9.26617 22.4017 9.25531 22.4125C9.09284 22.5746 8.94901 22.7182 8.84764 22.8972L9.27698 23.1403L8.84764 22.8972C8.74628 23.0762 8.69721 23.2734 8.64177 23.4961C8.63807 23.511 8.63433 23.526 8.63055 23.5412L7.42535 28.3619C7.42314 28.3708 7.42091 28.3797 7.41867 28.3886C7.37943 28.5453 7.33752 28.7127 7.32377 28.8532C7.30864 29.0079 7.31216 29.269 7.52157 29.4784Z" stroke="#222222"/>
<path d="M19.2708 11.5623L23.8958 8.479L28.5208 13.104L25.4375 17.729L19.2708 11.5623Z" fill="#222222"/>
</svg>
