<svg width="735" height="455" viewBox="0 0 735 455" fill="none" xmlns="http://www.w3.org/2000/svg">
<rect width="735" height="455" rx="3" fill="white"/>
<g filter="url(#filter0_d_1087_2548)">
<ellipse cx="395.584" cy="186.25" rx="8.16667" ry="7.75" fill="#222222"/>
<path fill-rule="evenodd" clip-rule="evenodd" d="M363.354 230.812H330.459C329.499 230.812 328.928 229.741 329.462 228.944L355.796 189.674C356.271 188.965 357.314 188.965 357.789 189.674L374.13 214.042L384.434 201.004C384.915 200.396 385.837 200.396 386.317 201.004L408.339 228.868C408.961 229.655 408.401 230.812 407.398 230.812H383.126H363.354Z" fill="#7E869E" fill-opacity="0.25"/>
<path d="M329.462 228.944L329.047 228.666L329.047 228.666L329.462 228.944ZM355.796 189.674L356.211 189.952L356.211 189.952L355.796 189.674ZM357.789 189.674L358.205 189.395L358.205 189.395L357.789 189.674ZM374.13 214.042L373.715 214.32C373.804 214.453 373.951 214.535 374.11 214.541C374.27 214.548 374.423 214.477 374.522 214.352L374.13 214.042ZM384.434 201.004L384.042 200.694L384.042 200.694L384.434 201.004ZM386.317 201.004L385.925 201.314L385.925 201.314L386.317 201.004ZM408.339 228.868L408.732 228.558L408.732 228.558L408.339 228.868ZM330.459 231.312H363.354V230.312H330.459V231.312ZM329.047 228.666C328.29 229.795 329.099 231.312 330.459 231.312V230.312C329.899 230.312 329.566 229.688 329.877 229.223L329.047 228.666ZM355.381 189.395L329.047 228.666L329.877 229.223L356.211 189.952L355.381 189.395ZM358.205 189.395C357.531 188.391 356.054 188.391 355.381 189.395L356.211 189.952C356.489 189.539 357.097 189.539 357.374 189.952L358.205 189.395ZM374.545 213.763L358.205 189.395L357.374 189.952L373.715 214.32L374.545 213.763ZM384.042 200.694L373.738 213.732L374.522 214.352L384.827 201.314L384.042 200.694ZM386.709 200.694C386.029 199.832 384.723 199.832 384.042 200.694L384.827 201.314C385.107 200.959 385.645 200.959 385.925 201.314L386.709 200.694ZM408.732 228.558L386.709 200.694L385.925 201.314L407.947 229.178L408.732 228.558ZM407.398 231.312C408.819 231.312 409.613 229.673 408.732 228.558L407.947 229.178C408.31 229.637 407.983 230.312 407.398 230.312V231.312ZM383.126 231.312H407.398V230.312H383.126V231.312ZM363.354 231.312H383.126V230.312H363.354V231.312Z" fill="#222222"/>
</g>
<defs>
<filter id="filter0_d_1087_2548" x="314" y="163" width="106" height="101" filterUnits="userSpaceOnUse" color-interpolation-filters="sRGB">
<feFlood flood-opacity="0" result="BackgroundImageFix"/>
<feColorMatrix in="SourceAlpha" type="matrix" values="0 0 0 0 0 0 0 0 0 0 0 0 0 0 0 0 0 0 127 0" result="hardAlpha"/>
<feOffset dy="4"/>
<feGaussianBlur stdDeviation="2"/>
<feComposite in2="hardAlpha" operator="out"/>
<feColorMatrix type="matrix" values="0 0 0 0 0 0 0 0 0 0 0 0 0 0 0 0 0 0 0.25 0"/>
<feBlend mode="normal" in2="BackgroundImageFix" result="effect1_dropShadow_1087_2548"/>
<feBlend mode="normal" in="SourceGraphic" in2="effect1_dropShadow_1087_2548" result="shape"/>
</filter>
</defs>
</svg>
