<svg width="735" height="455" viewBox="0 0 735 455" fill="none" xmlns="http://www.w3.org/2000/svg">
<rect width="735" height="455" rx="3" fill="white"/>
<ellipse cx="395.584" cy="196.25" rx="8.16667" ry="7.75" fill="#222222"/>
<path fill-rule="evenodd" clip-rule="evenodd" d="M363.354 240.812H330.459C329.499 240.812 328.928 239.741 329.462 238.944L355.796 199.674C356.271 198.965 357.314 198.965 357.789 199.674L374.13 224.042L384.434 211.004C384.915 210.396 385.837 210.396 386.317 211.004L408.339 238.868C408.961 239.655 408.401 240.812 407.398 240.812H383.126H363.354Z" fill="#7E869E" fill-opacity="0.25"/>
<path d="M329.462 238.944L329.047 238.666H329.047L329.462 238.944ZM355.796 199.674L356.211 199.952L356.211 199.952L355.796 199.674ZM357.789 199.674L358.205 199.395V199.395L357.789 199.674ZM374.13 224.042L373.715 224.32C373.804 224.453 373.951 224.535 374.11 224.541C374.27 224.548 374.423 224.477 374.522 224.352L374.13 224.042ZM384.434 211.004L384.042 210.694L384.042 210.694L384.434 211.004ZM386.317 211.004L385.925 211.314L386.317 211.004ZM408.339 238.868L408.732 238.558V238.558L408.339 238.868ZM330.459 241.312H363.354V240.312H330.459V241.312ZM329.047 238.666C328.29 239.795 329.099 241.312 330.459 241.312V240.312C329.899 240.312 329.566 239.688 329.877 239.223L329.047 238.666ZM355.381 199.395L329.047 238.666L329.877 239.223L356.211 199.952L355.381 199.395ZM358.205 199.395C357.531 198.391 356.054 198.391 355.381 199.395L356.211 199.952C356.489 199.539 357.097 199.539 357.374 199.952L358.205 199.395ZM374.545 223.763L358.205 199.395L357.374 199.952L373.715 224.32L374.545 223.763ZM384.042 210.694L373.738 223.732L374.522 224.352L384.827 211.314L384.042 210.694ZM386.709 210.694C386.029 209.832 384.723 209.832 384.042 210.694L384.827 211.314C385.107 210.959 385.645 210.959 385.925 211.314L386.709 210.694ZM408.732 238.558L386.709 210.694L385.925 211.314L407.947 239.178L408.732 238.558ZM407.398 241.312C408.819 241.312 409.613 239.673 408.732 238.558L407.947 239.178C408.31 239.637 407.983 240.312 407.398 240.312V241.312ZM383.126 241.312H407.398V240.312H383.126V241.312ZM363.354 241.312H383.126V240.312H363.354V241.312Z" fill="#222222"/>
<path d="M252.264 293L258.552 275.12H262.056L268.344 293H265.32L263.952 288.992H256.68L255.288 293H252.264ZM257.496 286.472H263.088L259.92 277.112H260.712L257.496 286.472ZM274.772 293.288C273.524 293.288 272.404 292.992 271.412 292.4C270.436 291.792 269.66 290.976 269.084 289.952C268.524 288.928 268.244 287.776 268.244 286.496C268.244 285.216 268.532 284.064 269.108 283.04C269.684 282.016 270.46 281.208 271.436 280.616C272.412 280.024 273.516 279.728 274.748 279.728C275.788 279.728 276.708 279.936 277.508 280.352C278.308 280.768 278.94 281.344 279.404 282.08L278.996 282.704V274.832H281.684V293H279.116V290.36L279.428 290.864C278.98 291.648 278.34 292.248 277.508 292.664C276.676 293.08 275.764 293.288 274.772 293.288ZM275.036 290.768C275.788 290.768 276.46 290.584 277.052 290.216C277.66 289.848 278.132 289.344 278.468 288.704C278.82 288.048 278.996 287.312 278.996 286.496C278.996 285.68 278.82 284.952 278.468 284.312C278.132 283.672 277.66 283.168 277.052 282.8C276.46 282.432 275.788 282.248 275.036 282.248C274.284 282.248 273.604 282.432 272.996 282.8C272.388 283.168 271.916 283.672 271.58 284.312C271.244 284.952 271.076 285.68 271.076 286.496C271.076 287.312 271.244 288.048 271.58 288.704C271.916 289.344 272.38 289.848 272.972 290.216C273.58 290.584 274.268 290.768 275.036 290.768ZM289.891 293.288C288.643 293.288 287.523 292.992 286.531 292.4C285.555 291.792 284.779 290.976 284.203 289.952C283.643 288.928 283.363 287.776 283.363 286.496C283.363 285.216 283.651 284.064 284.227 283.04C284.803 282.016 285.579 281.208 286.555 280.616C287.531 280.024 288.635 279.728 289.867 279.728C290.907 279.728 291.827 279.936 292.627 280.352C293.427 280.768 294.059 281.344 294.523 282.08L294.115 282.704V274.832H296.803V293H294.235V290.36L294.547 290.864C294.099 291.648 293.459 292.248 292.627 292.664C291.795 293.08 290.883 293.288 289.891 293.288ZM290.155 290.768C290.907 290.768 291.579 290.584 292.171 290.216C292.779 289.848 293.251 289.344 293.587 288.704C293.939 288.048 294.115 287.312 294.115 286.496C294.115 285.68 293.939 284.952 293.587 284.312C293.251 283.672 292.779 283.168 292.171 282.8C291.579 282.432 290.907 282.248 290.155 282.248C289.403 282.248 288.723 282.432 288.115 282.8C287.507 283.168 287.035 283.672 286.699 284.312C286.363 284.952 286.195 285.68 286.195 286.496C286.195 287.312 286.363 288.048 286.699 288.704C287.035 289.344 287.499 289.848 288.091 290.216C288.699 290.584 289.387 290.768 290.155 290.768ZM303.396 298.304C303.076 298.304 302.756 298.272 302.436 298.208C302.132 298.16 301.852 298.08 301.596 297.968V295.64C301.788 295.688 302.02 295.728 302.292 295.76C302.564 295.808 302.828 295.832 303.084 295.832C303.836 295.832 304.388 295.664 304.74 295.328C305.108 295.008 305.436 294.504 305.724 293.816L306.588 291.848L306.54 294.128L300.924 280.016H303.828L307.98 290.84H306.996L311.124 280.016H314.052L308.316 294.416C308.012 295.184 307.628 295.856 307.164 296.432C306.716 297.024 306.18 297.48 305.556 297.8C304.948 298.136 304.228 298.304 303.396 298.304ZM320.978 293.288C319.73 293.288 318.586 292.992 317.546 292.4C316.522 291.808 315.706 291 315.098 289.976C314.49 288.952 314.186 287.792 314.186 286.496C314.186 285.184 314.49 284.024 315.098 283.016C315.706 281.992 316.522 281.192 317.546 280.616C318.57 280.024 319.714 279.728 320.978 279.728C322.258 279.728 323.402 280.024 324.41 280.616C325.434 281.192 326.242 281.992 326.834 283.016C327.442 284.024 327.746 285.184 327.746 286.496C327.746 287.808 327.442 288.976 326.834 290C326.226 291.024 325.41 291.832 324.386 292.424C323.362 293 322.226 293.288 320.978 293.288ZM320.978 290.768C321.746 290.768 322.426 290.584 323.018 290.216C323.61 289.848 324.074 289.344 324.41 288.704C324.762 288.048 324.938 287.312 324.938 286.496C324.938 285.68 324.762 284.952 324.41 284.312C324.074 283.672 323.61 283.168 323.018 282.8C322.426 282.432 321.746 282.248 320.978 282.248C320.226 282.248 319.546 282.432 318.938 282.8C318.346 283.168 317.874 283.672 317.522 284.312C317.186 284.952 317.018 285.68 317.018 286.496C317.018 287.312 317.186 288.048 317.522 288.704C317.874 289.344 318.346 289.848 318.938 290.216C319.546 290.584 320.226 290.768 320.978 290.768ZM334.065 293.288C333.089 293.288 332.233 293.072 331.497 292.64C330.761 292.192 330.185 291.576 329.769 290.792C329.369 289.992 329.169 289.072 329.169 288.032V280.016H331.881V287.792C331.881 288.384 332.001 288.904 332.241 289.352C332.481 289.8 332.817 290.152 333.249 290.408C333.681 290.648 334.177 290.768 334.737 290.768C335.313 290.768 335.817 290.64 336.249 290.384C336.681 290.128 337.017 289.768 337.257 289.304C337.513 288.84 337.641 288.296 337.641 287.672V280.016H340.329V293H337.761V290.456L338.049 290.792C337.745 291.592 337.241 292.208 336.537 292.64C335.833 293.072 335.009 293.288 334.065 293.288ZM342.536 293V280.016H345.128V282.632L344.888 282.248C345.176 281.4 345.64 280.792 346.28 280.424C346.92 280.04 347.688 279.848 348.584 279.848H349.376V282.32H348.248C347.352 282.32 346.624 282.6 346.064 283.16C345.52 283.704 345.248 284.488 345.248 285.512V293H342.536ZM353.507 297.8V280.016H356.099V282.704L355.787 282.08C356.267 281.344 356.907 280.768 357.707 280.352C358.507 279.936 359.419 279.728 360.443 279.728C361.675 279.728 362.779 280.024 363.755 280.616C364.747 281.208 365.523 282.016 366.083 283.04C366.659 284.064 366.947 285.216 366.947 286.496C366.947 287.776 366.659 288.928 366.083 289.952C365.523 290.976 364.755 291.792 363.779 292.4C362.803 292.992 361.691 293.288 360.443 293.288C359.435 293.288 358.515 293.08 357.683 292.664C356.867 292.248 356.235 291.648 355.787 290.864L356.219 290.36V297.8H353.507ZM360.179 290.768C360.947 290.768 361.627 290.584 362.219 290.216C362.811 289.848 363.275 289.344 363.611 288.704C363.963 288.048 364.139 287.312 364.139 286.496C364.139 285.68 363.963 284.952 363.611 284.312C363.275 283.672 362.811 283.168 362.219 282.8C361.627 282.432 360.947 282.248 360.179 282.248C359.427 282.248 358.747 282.432 358.139 282.8C357.547 283.168 357.075 283.672 356.723 284.312C356.387 284.952 356.219 285.68 356.219 286.496C356.219 287.312 356.387 288.048 356.723 288.704C357.075 289.344 357.547 289.848 358.139 290.216C358.747 290.584 359.427 290.768 360.179 290.768ZM368.625 293V274.832H371.337V282.56L370.905 282.224C371.225 281.408 371.737 280.792 372.441 280.376C373.145 279.944 373.961 279.728 374.889 279.728C375.849 279.728 376.697 279.936 377.433 280.352C378.169 280.768 378.745 281.344 379.161 282.08C379.577 282.816 379.785 283.656 379.785 284.6V293H377.097V285.344C377.097 284.688 376.969 284.136 376.713 283.688C376.473 283.224 376.137 282.872 375.705 282.632C375.273 282.376 374.777 282.248 374.217 282.248C373.673 282.248 373.177 282.376 372.729 282.632C372.297 282.872 371.953 283.224 371.697 283.688C371.457 284.152 371.337 284.704 371.337 285.344V293H368.625ZM387.991 293.288C386.743 293.288 385.599 292.992 384.559 292.4C383.535 291.808 382.719 291 382.111 289.976C381.503 288.952 381.199 287.792 381.199 286.496C381.199 285.184 381.503 284.024 382.111 283.016C382.719 281.992 383.535 281.192 384.559 280.616C385.583 280.024 386.727 279.728 387.991 279.728C389.271 279.728 390.415 280.024 391.423 280.616C392.447 281.192 393.255 281.992 393.847 283.016C394.455 284.024 394.759 285.184 394.759 286.496C394.759 287.808 394.455 288.976 393.847 290C393.239 291.024 392.423 291.832 391.399 292.424C390.375 293 389.239 293.288 387.991 293.288ZM387.991 290.768C388.759 290.768 389.439 290.584 390.031 290.216C390.623 289.848 391.087 289.344 391.423 288.704C391.775 288.048 391.951 287.312 391.951 286.496C391.951 285.68 391.775 284.952 391.423 284.312C391.087 283.672 390.623 283.168 390.031 282.8C389.439 282.432 388.759 282.248 387.991 282.248C387.239 282.248 386.559 282.432 385.951 282.8C385.359 283.168 384.887 283.672 384.535 284.312C384.199 284.952 384.031 285.68 384.031 286.496C384.031 287.312 384.199 288.048 384.535 288.704C384.887 289.344 385.359 289.848 385.951 290.216C386.559 290.584 387.239 290.768 387.991 290.768ZM401.828 293.144C400.468 293.144 399.412 292.76 398.66 291.992C397.908 291.224 397.532 290.144 397.532 288.752V282.464H395.252V280.016H395.612C396.22 280.016 396.692 279.84 397.028 279.488C397.364 279.136 397.532 278.656 397.532 278.048V277.04H400.244V280.016H403.196V282.464H400.244V288.632C400.244 289.08 400.316 289.464 400.46 289.784C400.604 290.088 400.836 290.328 401.156 290.504C401.476 290.664 401.892 290.744 402.404 290.744C402.532 290.744 402.676 290.736 402.836 290.72C402.996 290.704 403.148 290.688 403.292 290.672V293C403.068 293.032 402.82 293.064 402.548 293.096C402.276 293.128 402.036 293.144 401.828 293.144ZM411.009 293.288C409.761 293.288 408.617 292.992 407.577 292.4C406.553 291.808 405.737 291 405.129 289.976C404.521 288.952 404.217 287.792 404.217 286.496C404.217 285.184 404.521 284.024 405.129 283.016C405.737 281.992 406.553 281.192 407.577 280.616C408.601 280.024 409.745 279.728 411.009 279.728C412.289 279.728 413.433 280.024 414.441 280.616C415.465 281.192 416.273 281.992 416.865 283.016C417.473 284.024 417.777 285.184 417.777 286.496C417.777 287.808 417.473 288.976 416.865 290C416.257 291.024 415.441 291.832 414.417 292.424C413.393 293 412.257 293.288 411.009 293.288ZM411.009 290.768C411.777 290.768 412.457 290.584 413.049 290.216C413.641 289.848 414.105 289.344 414.441 288.704C414.793 288.048 414.969 287.312 414.969 286.496C414.969 285.68 414.793 284.952 414.441 284.312C414.105 283.672 413.641 283.168 413.049 282.8C412.457 282.432 411.777 282.248 411.009 282.248C410.257 282.248 409.577 282.432 408.969 282.8C408.377 283.168 407.905 283.672 407.553 284.312C407.217 284.952 407.049 285.68 407.049 286.496C407.049 287.312 407.217 288.048 407.553 288.704C407.905 289.344 408.377 289.848 408.969 290.216C409.577 290.584 410.257 290.768 411.009 290.768ZM424.264 293.288C422.936 293.288 421.768 292.96 420.76 292.304C419.768 291.648 419.072 290.768 418.672 289.664L420.76 288.68C421.112 289.416 421.592 290 422.2 290.432C422.824 290.864 423.512 291.08 424.264 291.08C424.904 291.08 425.424 290.936 425.824 290.648C426.224 290.36 426.424 289.968 426.424 289.472C426.424 289.152 426.336 288.896 426.16 288.704C425.984 288.496 425.76 288.328 425.488 288.2C425.232 288.072 424.968 287.976 424.696 287.912L422.656 287.336C421.536 287.016 420.696 286.536 420.136 285.896C419.592 285.24 419.32 284.48 419.32 283.616C419.32 282.832 419.52 282.152 419.92 281.576C420.32 280.984 420.872 280.528 421.576 280.208C422.28 279.888 423.072 279.728 423.952 279.728C425.136 279.728 426.192 280.024 427.12 280.616C428.048 281.192 428.704 282 429.088 283.04L427 284.024C426.744 283.4 426.336 282.904 425.776 282.536C425.232 282.168 424.616 281.984 423.928 281.984C423.336 281.984 422.864 282.128 422.512 282.416C422.16 282.688 421.984 283.048 421.984 283.496C421.984 283.8 422.064 284.056 422.224 284.264C422.384 284.456 422.592 284.616 422.848 284.744C423.104 284.856 423.368 284.952 423.64 285.032L425.752 285.656C426.824 285.96 427.648 286.44 428.224 287.096C428.8 287.736 429.088 288.504 429.088 289.4C429.088 290.168 428.88 290.848 428.464 291.44C428.064 292.016 427.504 292.472 426.784 292.808C426.064 293.128 425.224 293.288 424.264 293.288ZM434.021 293V274.832H436.733V282.56L436.301 282.224C436.621 281.408 437.133 280.792 437.837 280.376C438.541 279.944 439.357 279.728 440.285 279.728C441.245 279.728 442.093 279.936 442.829 280.352C443.565 280.768 444.141 281.344 444.557 282.08C444.973 282.816 445.181 283.656 445.181 284.6V293H442.493V285.344C442.493 284.688 442.365 284.136 442.109 283.688C441.869 283.224 441.533 282.872 441.101 282.632C440.669 282.376 440.173 282.248 439.613 282.248C439.069 282.248 438.573 282.376 438.125 282.632C437.693 282.872 437.349 283.224 437.093 283.688C436.853 284.152 436.733 284.704 436.733 285.344V293H434.021ZM453.219 293.288C451.923 293.288 450.771 292.992 449.763 292.4C448.771 291.792 447.995 290.976 447.435 289.952C446.875 288.912 446.595 287.752 446.595 286.472C446.595 285.16 446.875 284 447.435 282.992C448.011 281.984 448.779 281.192 449.739 280.616C450.699 280.024 451.787 279.728 453.003 279.728C453.979 279.728 454.851 279.896 455.619 280.232C456.387 280.568 457.035 281.032 457.563 281.624C458.091 282.2 458.491 282.864 458.763 283.616C459.051 284.368 459.195 285.168 459.195 286.016C459.195 286.224 459.187 286.44 459.171 286.664C459.155 286.888 459.123 287.096 459.075 287.288H448.731V285.128H457.539L456.243 286.112C456.403 285.328 456.347 284.632 456.075 284.024C455.819 283.4 455.419 282.912 454.875 282.56C454.347 282.192 453.723 282.008 453.003 282.008C452.283 282.008 451.643 282.192 451.083 282.56C450.523 282.912 450.091 283.424 449.787 284.096C449.483 284.752 449.363 285.552 449.427 286.496C449.347 287.376 449.467 288.144 449.787 288.8C450.123 289.456 450.587 289.968 451.179 290.336C451.787 290.704 452.475 290.888 453.243 290.888C454.027 290.888 454.691 290.712 455.235 290.36C455.795 290.008 456.235 289.552 456.555 288.992L458.763 290.072C458.507 290.68 458.107 291.232 457.563 291.728C457.035 292.208 456.395 292.592 455.643 292.88C454.907 293.152 454.099 293.288 453.219 293.288ZM460.882 293V280.016H463.474V282.632L463.234 282.248C463.522 281.4 463.986 280.792 464.626 280.424C465.266 280.04 466.034 279.848 466.93 279.848H467.722V282.32H466.594C465.698 282.32 464.97 282.6 464.41 283.16C463.866 283.704 463.594 284.488 463.594 285.512V293H460.882ZM474.713 293.288C473.417 293.288 472.265 292.992 471.257 292.4C470.265 291.792 469.489 290.976 468.929 289.952C468.369 288.912 468.089 287.752 468.089 286.472C468.089 285.16 468.369 284 468.929 282.992C469.505 281.984 470.273 281.192 471.233 280.616C472.193 280.024 473.281 279.728 474.497 279.728C475.473 279.728 476.345 279.896 477.113 280.232C477.881 280.568 478.529 281.032 479.057 281.624C479.585 282.2 479.985 282.864 480.257 283.616C480.545 284.368 480.689 285.168 480.689 286.016C480.689 286.224 480.681 286.44 480.665 286.664C480.649 286.888 480.617 287.096 480.569 287.288H470.225V285.128H479.033L477.737 286.112C477.897 285.328 477.841 284.632 477.569 284.024C477.313 283.4 476.913 282.912 476.369 282.56C475.841 282.192 475.217 282.008 474.497 282.008C473.777 282.008 473.137 282.192 472.577 282.56C472.017 282.912 471.585 283.424 471.281 284.096C470.977 284.752 470.857 285.552 470.921 286.496C470.841 287.376 470.961 288.144 471.281 288.8C471.617 289.456 472.081 289.968 472.673 290.336C473.281 290.704 473.969 290.888 474.737 290.888C475.521 290.888 476.185 290.712 476.729 290.36C477.289 290.008 477.729 289.552 478.049 288.992L480.257 290.072C480.001 290.68 479.601 291.232 479.057 291.728C478.529 292.208 477.889 292.592 477.137 292.88C476.401 293.152 475.593 293.288 474.713 293.288Z" fill="black"/>
</svg>
