<svg width="735" height="455" viewBox="0 0 735 455" fill="none" xmlns="http://www.w3.org/2000/svg">
<rect width="735" height="455" rx="3" fill="white"/>
<ellipse cx="395.583" cy="196.25" rx="8.16667" ry="7.75" fill="#222222"/>
<path fill-rule="evenodd" clip-rule="evenodd" d="M363.353 240.812H330.458C329.498 240.812 328.927 239.741 329.462 238.944L355.796 199.674C356.271 198.965 357.313 198.965 357.789 199.674L374.129 224.042L384.434 211.004C384.914 210.396 385.836 210.396 386.317 211.004L408.339 238.868C408.961 239.655 408.4 240.812 407.397 240.812H383.126H363.353Z" fill="#7E869E" fill-opacity="0.25"/>
<path d="M329.462 238.944L329.046 238.666H329.046L329.462 238.944ZM355.796 199.674L356.211 199.952L356.211 199.952L355.796 199.674ZM357.789 199.674L358.204 199.395V199.395L357.789 199.674ZM374.129 224.042L373.714 224.32C373.803 224.453 373.95 224.535 374.11 224.541C374.27 224.548 374.423 224.477 374.522 224.352L374.129 224.042ZM384.434 211.004L384.041 210.694L384.041 210.694L384.434 211.004ZM386.317 211.004L385.924 211.314L386.317 211.004ZM408.339 238.868L408.731 238.558V238.558L408.339 238.868ZM330.458 241.312H363.353V240.312H330.458V241.312ZM329.046 238.666C328.289 239.795 329.099 241.312 330.458 241.312V240.312C329.898 240.312 329.565 239.688 329.877 239.223L329.046 238.666ZM355.38 199.395L329.046 238.666L329.877 239.223L356.211 199.952L355.38 199.395ZM358.204 199.395C357.531 198.391 356.054 198.391 355.38 199.395L356.211 199.952C356.488 199.539 357.096 199.539 357.374 199.952L358.204 199.395ZM374.545 223.763L358.204 199.395L357.374 199.952L373.714 224.32L374.545 223.763ZM384.041 210.694L373.737 223.732L374.522 224.352L384.826 211.314L384.041 210.694ZM386.709 210.694C386.028 209.832 384.722 209.832 384.041 210.694L384.826 211.314C385.106 210.959 385.644 210.959 385.924 211.314L386.709 210.694ZM408.731 238.558L386.709 210.694L385.924 211.314L407.947 239.178L408.731 238.558ZM407.397 241.312C408.818 241.312 409.612 239.673 408.731 238.558L407.947 239.178C408.309 239.637 407.982 240.312 407.397 240.312V241.312ZM383.126 241.312H407.397V240.312H383.126V241.312ZM363.353 241.312H383.126V240.312H363.353V241.312Z" fill="#222222"/>
<rect x="318.5" y="173.5" width="97" height="92" stroke="black"/>
</svg>
