<svg width="697" height="620" viewBox="0 0 697 620" fill="none" xmlns="http://www.w3.org/2000/svg">
<path d="M521.241 510.875C524.847 512.886 525.376 518.664 523.338 522.451C521.3 526.238 517.459 528.506 513.873 530.368C505.242 534.74 496.182 538.021 486.869 540.146C482.656 541.13 477.071 543.741 478.129 548.32C478.894 551.979 483.224 552.856 486.654 552.92C537.604 553.776 587.986 538.841 638.917 540.082C642.287 540.082 646.03 540.489 648.343 543.185C651.262 546.587 650.479 552.064 648.832 556.365C639.74 580.244 613.559 589.552 590.161 593.681C536.879 603.118 482.519 600.422 428.551 599.758C321.065 598.474 213.286 605.386 106.192 595.158C103.924 595.163 101.699 594.482 99.7646 593.189C97.8558 591.342 96.6818 588.756 96.492 585.979C94.6696 571.75 105.095 558.376 117.362 553.177C129.629 547.977 143.249 548.898 156.378 549.946C212.012 554.225 267.881 557.863 323.495 553.284C359.919 550.627 395.947 543.448 430.883 531.887C446.932 526.431 463.177 515.689 479.579 512.416C484.635 511.41 489.77 512.095 494.865 511.817C502.272 511.41 514.343 507.045 521.241 510.875Z" fill="url(#paint0_linear_594_2733)"/>
<path d="M382.088 37.3161L200.685 56.8088C181.951 58.8201 166.745 76.0661 166.745 95.2165V539.312C166.745 558.569 181.951 572.434 200.685 570.423L382.088 550.93C400.842 548.919 416.048 531.673 416.048 512.544V68.4488C416.048 49.2343 400.842 35.3048 382.088 37.3161ZM398.725 513.485C398.725 525.318 389.358 535.909 377.816 537.151L201.548 556.087C189.986 557.328 180.619 548.748 180.619 536.83V93.9113C180.619 82.0787 189.986 71.4872 201.548 70.2462L227.963 67.4003V70.0322C227.963 77.6067 233.96 83.1058 241.348 82.3141L338.839 71.9793C342.374 71.6527 345.68 69.9375 348.145 67.1518C350.61 64.366 352.066 60.6988 352.243 56.8302V54.3054L377.718 51.5666C389.26 50.3255 398.627 58.9057 398.627 70.8239L398.725 513.485Z" fill="#D6E4E5"/>
<path d="M390.632 45.511L209.21 65.0037C190.476 67.015 175.269 84.261 175.269 103.518V547.506C175.269 566.764 190.476 580.629 209.21 578.618L390.632 559.146C409.366 557.135 424.573 539.889 424.573 520.739V76.6437C424.573 57.4506 409.386 43.6067 390.632 45.511ZM407.269 521.68C407.269 533.513 397.902 544.104 386.34 545.345L209.974 564.282C198.412 565.523 189.045 556.942 189.045 545.024V102.106C189.045 90.2736 198.412 79.6607 209.974 78.4196L236.488 75.7022V78.3126C236.488 85.8872 242.484 91.3862 249.872 90.5945L347.383 80.1314C350.908 79.7917 354.203 78.0747 356.661 75.2956C359.12 72.5166 360.578 68.8622 360.767 65.0037V62.4147L386.34 59.6544C397.902 58.4134 407.269 67.015 407.269 78.9118V521.68Z" fill="#105D38"/>
<path d="M407.269 78.8483V521.767C407.269 533.599 397.902 544.191 386.34 545.432L209.974 564.368C198.412 565.609 189.045 557.029 189.045 545.111V102.192C189.045 90.3599 198.412 79.747 209.974 78.506L236.488 75.703V78.3134C236.488 85.888 242.484 91.387 249.872 90.5953L347.383 80.1322C350.908 79.7925 354.203 78.0754 356.661 75.2964C359.12 72.5174 360.578 68.863 360.767 65.0045V62.4154L386.34 59.6552C397.902 58.4142 407.269 67.0158 407.269 78.8483Z" stroke="url(#paint1_linear_594_2733)" stroke-width="0.63" stroke-miterlimit="10"/>
<path d="M407.269 78.8483V521.767C407.269 533.599 397.902 544.191 386.34 545.432L209.974 564.368C198.412 565.609 189.045 557.029 189.045 545.111V102.192C189.045 90.3599 198.412 79.747 209.974 78.506L236.488 75.703V78.3134C236.488 85.888 242.484 91.387 249.872 90.5953L347.383 80.1322C350.908 79.7925 354.203 78.0754 356.661 75.2964C359.12 72.5174 360.578 68.863 360.767 65.0045V62.4154L386.34 59.6552C397.902 58.4142 407.269 67.0158 407.269 78.8483Z" fill="#D6E4E5"/>
<path d="M347.069 499.107L258.494 508.372C257.246 508.485 255.99 508.313 254.805 507.868C253.621 507.424 252.534 506.715 251.613 505.788C250.692 504.861 249.957 503.735 249.455 502.482C248.953 501.229 248.695 499.876 248.696 498.508V474.308C248.695 471.818 249.544 469.418 251.077 467.574C252.609 465.731 254.716 464.577 256.985 464.337L345.521 455.072C346.779 454.941 348.048 455.098 349.247 455.535C350.445 455.971 351.547 456.676 352.481 457.605C353.415 458.534 354.16 459.667 354.669 460.929C355.179 462.192 355.44 463.557 355.437 464.936V489.136C355.432 491.638 354.571 494.048 353.023 495.892C351.475 497.737 349.352 498.883 347.069 499.107Z" fill="url(#paint2_linear_594_2733)"/>
<path d="M311.914 74.3763L278.404 77.971V74.9326L311.914 71.3379V74.3763Z" fill="url(#paint3_linear_594_2733)"/>
<path d="M322.427 74.5696C324.211 73.4305 324.905 71.1011 323.977 69.3668C323.048 67.6324 320.849 67.1499 319.064 68.289C317.28 69.4281 316.586 71.7575 317.514 73.4918C318.443 75.2262 320.642 75.7087 322.427 74.5696Z" fill="url(#paint4_linear_594_2733)"/>
<path d="M233.019 414.011L360.806 400.638C365.115 400.214 369.12 398.035 372.024 394.534C374.929 391.034 376.521 386.468 376.484 381.744V224.327C376.463 221.465 375.901 218.639 374.834 216.025C373.768 213.411 372.218 211.066 370.283 209.136C368.348 207.206 366.069 205.732 363.589 204.808C361.109 203.884 358.48 203.528 355.868 203.764L228.081 217.137C223.774 217.556 219.77 219.731 216.865 223.228C213.96 226.725 212.367 231.288 212.404 236.009V393.449C212.425 396.31 212.986 399.136 214.053 401.75C215.12 404.364 216.669 406.709 218.604 408.639C220.539 410.569 222.818 412.043 225.299 412.967C227.779 413.891 230.407 414.247 233.019 414.011Z" fill="#C9D9DF"/>
<path d="M240.564 416.237L368.351 402.863C372.658 402.444 376.662 400.27 379.567 396.773C382.472 393.276 384.065 388.712 384.028 383.991V226.552C384.007 223.691 383.446 220.864 382.379 218.251C381.312 215.637 379.763 213.291 377.828 211.361C375.893 209.431 373.614 207.958 371.133 207.034C368.653 206.109 366.025 205.754 363.413 205.99L235.626 219.363C231.317 219.787 227.312 221.966 224.408 225.467C221.503 228.967 219.911 233.533 219.949 238.256V395.674C219.969 398.536 220.531 401.362 221.598 403.976C222.664 406.589 224.214 408.935 226.149 410.865C228.084 412.795 230.363 414.268 232.843 415.192C235.323 416.117 237.952 416.472 240.564 416.237Z" fill="url(#paint5_linear_594_2733)"/>
<path d="M245.482 248.206L291.338 244.184V294.445L245.482 298.468V248.206ZM283.734 286.721V253.299L253.086 255.995V289.609L283.734 286.721Z" fill="#105D38"/>
<path d="M322.261 241.423L368.077 237.4V287.705L322.261 291.813V241.423ZM360.493 280.066V246.451L329.825 249.147V282.762L360.493 280.066Z" fill="#105D38"/>
<path d="M291.338 378.578L245.482 382.6V332.467L291.338 328.444V378.578ZM253.047 373.592L283.774 370.982V337.388L253.047 340.084V373.592Z" fill="#105D38"/>
<path d="M306.721 251.158L314.363 250.495V267.206L306.78 267.869V276.214L299.235 276.878V243.498L306.721 242.835V251.158Z" fill="#105D38"/>
<path d="M368.096 312.954L352.929 314.28V305.935L337.604 307.262V299.024L368.096 296.35V312.954Z" fill="#105D38"/>
<path d="M360.513 347.445V355.705L368.077 355.041V371.752L352.968 373.079V348.173L360.513 347.445Z" fill="#105D38"/>
<path d="M260.689 305.764V314.044L268.293 313.381V321.769L245.502 323.78V307.176L260.689 305.764Z" fill="#105D38"/>
<path d="M306.78 301.656L329.668 299.645V316.356L314.422 317.704V309.145L306.78 309.808V301.463V301.656Z" fill="#105D38"/>
<path d="M322.261 325.492L329.844 324.829V316.527L345.051 315.179V331.783L322.261 333.773V325.492Z" fill="#105D38"/>
<path d="M314.422 317.703V334.414L299.176 335.762V319.051L314.5 317.703H314.422Z" fill="#105D38"/>
<path d="M314.402 359.962L318.518 359.513L328.571 358.636H329.707V375.261L314.5 376.609V361.203C314.5 360.797 314.5 360.412 314.5 360.005L314.402 359.962Z" fill="#105D38"/>
<path d="M299.176 319.052L283.911 320.378V312.076L291.455 311.413V303.004L299.157 302.319V319.116L299.176 319.052Z" fill="#105D38"/>
<path d="M368.096 338.159L360.591 338.822V330.499L352.988 331.162V322.881L368.096 321.555V338.159Z" fill="#105D38"/>
<path d="M306.838 360.562V352.003L299.235 352.666V344.45L314.402 343.123V359.92C313.227 359.92 312.071 359.92 310.914 360.091C309.758 360.262 308.171 360.39 306.799 360.54L306.838 360.562Z" fill="#105D38"/>
<path d="M306.858 293.289V276.492L314.363 275.829V292.604L306.819 293.268L306.858 293.289Z" fill="#105D38"/>
<path d="M306.819 360.54V375.839V377.208L299.274 377.872V361.246L306.897 360.561L306.819 360.54Z" fill="#105D38"/>
<path d="M283.656 303.753V311.948L268.547 313.275V305.08L283.656 303.753Z" fill="#105D38"/>
<path d="M337.604 349.242V341.026L352.733 339.699V347.851L337.604 349.242Z" fill="#105D38"/>
<path d="M337.604 374.491V357.93L345.051 357.267V373.828L337.604 374.491Z" fill="#105D38"/>
<path d="M299.157 302.319V293.952L306.858 293.268C306.858 296.071 306.858 298.852 306.858 301.655L299.176 302.34L299.157 302.319Z" fill="#105D38"/>
<path d="M322.241 350.591V342.417L329.688 341.775V349.928L322.241 350.591Z" fill="#105D38"/>
<path d="M314.559 342.845V334.607L322.025 333.943V342.117L314.559 342.845Z" fill="#105D38"/>
<path d="M337.369 357.694L329.942 358.357V350.162L337.369 349.499V357.694Z" fill="#105D38"/>
<path d="M275.994 262.371L260.846 263.698V280.259L275.994 278.932V262.371Z" fill="#105D38"/>
<path d="M352.733 272.235V255.631L337.644 256.957V273.562L352.733 272.235Z" fill="#105D38"/>
<path d="M260.807 364.413L275.955 363.087V346.504L260.807 347.831V364.413Z" fill="#105D38"/>
<path d="M275.994 262.371V278.975L260.846 280.302V263.741L275.994 262.371Z" fill="#105D38"/>
<path d="M352.733 272.235L337.644 273.562V256.957L352.733 255.631V272.235Z" fill="#105D38"/>
<path d="M260.807 364.413V347.831L275.955 346.504V363.087L260.807 364.413Z" fill="#105D38"/>
<path d="M351.498 495.897L262.962 505.141C261.706 505.275 260.437 505.121 259.239 504.687C258.04 504.253 256.938 503.55 256.004 502.623C255.069 501.695 254.323 500.564 253.814 499.303C253.305 498.041 253.043 496.677 253.047 495.298V471.098C253.046 468.608 253.894 466.208 255.427 464.364C256.96 462.521 259.066 461.367 261.336 461.127L349.872 451.862C351.129 451.731 352.398 451.888 353.597 452.325C354.796 452.761 355.897 453.466 356.831 454.395C357.765 455.324 358.511 456.457 359.02 457.719C359.529 458.982 359.79 460.347 359.787 461.726V485.926C359.788 488.416 358.94 490.817 357.407 492.66C355.874 494.504 353.768 495.658 351.498 495.897Z" fill="white"/>
<path d="M279.345 485.434L282.99 485.049C282.996 485.252 283.043 485.451 283.128 485.633C283.213 485.814 283.333 485.972 283.48 486.097C283.877 486.368 284.349 486.474 284.812 486.397C285.275 486.358 285.721 486.188 286.106 485.905C286.278 485.788 286.42 485.624 286.517 485.429C286.613 485.234 286.66 485.014 286.654 484.792C286.666 484.686 286.666 484.578 286.654 484.471C286.542 484.314 286.402 484.183 286.243 484.086C285.921 483.88 285.57 483.736 285.204 483.658L283.46 483.23C282.777 483.107 282.116 482.869 281.5 482.524C281.022 482.27 280.611 481.887 280.305 481.411C279.859 480.715 279.62 479.886 279.619 479.036C279.609 478.353 279.735 477.676 279.989 477.052C280.243 476.427 280.618 475.871 281.089 475.42C282.125 474.423 283.434 473.829 284.812 473.73C286.105 473.514 287.425 473.851 288.496 474.671C288.971 475.068 289.349 475.586 289.598 476.179C289.848 476.772 289.96 477.422 289.927 478.074L286.321 478.437C286.321 477.474 285.812 477.046 284.773 477.153C284.353 477.164 283.948 477.322 283.617 477.603C283.488 477.716 283.384 477.859 283.312 478.022C283.241 478.185 283.204 478.364 283.205 478.544C283.205 479.101 283.656 479.486 284.577 479.678L286.282 480.085C289.025 480.684 290.397 482.225 290.397 484.364C290.414 485.396 290.102 486.402 289.515 487.21C288.971 487.978 288.256 488.582 287.438 488.965C286.631 489.355 285.77 489.594 284.891 489.671C283.525 489.896 282.131 489.569 280.971 488.751C280.468 488.39 280.056 487.898 279.772 487.318C279.488 486.739 279.341 486.091 279.345 485.434Z" fill="#4CD080"/>
<path d="M302.841 482.246L305.8 484.107C305.114 485.284 304.188 486.273 303.095 486.996C302.005 487.739 300.77 488.194 299.49 488.322C298.532 488.452 297.561 488.358 296.639 488.049C295.717 487.739 294.865 487.22 294.14 486.525C293.425 485.855 292.855 485.02 292.472 484.08C292.089 483.14 291.902 482.119 291.926 481.09C291.927 478.887 292.723 476.774 294.14 475.206C295.522 473.539 297.436 472.513 299.49 472.339C300.724 472.188 301.972 472.387 303.115 472.917C304.194 473.421 305.128 474.234 305.819 475.27L302.821 477.752C302.475 477.184 301.985 476.737 301.41 476.468C300.797 476.163 300.12 476.045 299.451 476.126C298.379 476.224 297.383 476.768 296.668 477.645C295.934 478.47 295.526 479.576 295.531 480.726C295.513 481.264 295.605 481.798 295.802 482.291C295.999 482.784 296.295 483.222 296.668 483.572C297.042 483.939 297.485 484.213 297.965 484.375C298.445 484.538 298.952 484.585 299.451 484.514C300.147 484.458 300.82 484.216 301.41 483.808C301.99 483.413 302.48 482.879 302.841 482.246Z" fill="#4CD080"/>
<path d="M317.126 486.248L315.872 482.803L311.208 483.273L309.954 486.975L306.035 487.36L311.522 471.227L315.441 470.842L320.889 485.82L317.126 486.248ZM313.501 474.65L312.169 479.914L314.951 479.636L313.501 474.65Z" fill="#4CD080"/>
<path d="M330.06 469.408L333.646 469.044V484.642L330.511 484.942L325.964 476.897V485.455L322.359 485.819V470.221L325.612 469.9L330.06 477.838V469.408Z" fill="#4CD080"/>
<path d="M469.409 252.25L373.289 203.679L215.931 224.455L219.929 407.785L233.019 414.011L376.464 401.451L384.008 383.991L467.978 259.439L469.409 252.25Z" fill="url(#paint6_linear_594_2733)"/>
<path d="M465.666 263.483V248.12C465.665 247.611 465.787 247.111 466.022 246.671C466.256 246.231 466.593 245.867 466.999 245.617L474.837 240.845C475.66 240.331 478.913 242.407 478.913 243.434L476.699 269.795L471.192 274.438L465.686 270.908L465.666 263.483Z" fill="white"/>
<path d="M465.666 263.483V248.12C465.665 247.611 465.787 247.111 466.022 246.671C466.256 246.231 466.593 245.867 466.999 245.617L474.837 240.845C475.66 240.331 478.913 242.407 478.913 243.434L476.699 269.795L471.192 274.438L465.686 270.908L465.666 263.483Z" fill="url(#paint7_linear_594_2733)"/>
<path d="M467.978 265.388V250.003C467.976 249.497 468.099 249 468.334 248.563C468.568 248.126 468.906 247.766 469.311 247.521L477.149 242.728C477.339 242.614 477.552 242.554 477.769 242.557C477.986 242.559 478.198 242.622 478.386 242.741C478.573 242.859 478.729 243.029 478.839 243.233C478.948 243.437 479.008 243.668 479.011 243.905V271.721L473.505 276.343L467.998 272.834L467.978 265.388Z" fill="white"/>
<path d="M469.409 264.745V252.249L478.325 246.108V266.778L476.366 273.732L472.211 275.23C472.211 275.23 469.997 274.203 469.997 273.882" fill="#D6E4E5"/>
<path d="M594.041 378.556L592.865 380.289L597.098 314.472L597.941 301.248L598.352 294.829L600.567 300.029C604.721 309.593 613.344 329.599 615.754 335.077C618.517 341.368 599.078 370.981 594.041 378.556Z" fill="#FFAE58"/>
<path opacity="0.1" d="M594.041 378.556C593.552 377.294 593.37 375.916 593.512 374.555C594.029 371.549 595.213 368.728 596.961 366.338C601.625 358.849 607.465 350.911 610.149 342.224C613.677 330.734 602.115 323.608 597.098 314.408C595.815 312.255 595.053 309.781 594.884 307.218C594.8 305.997 595.045 304.775 595.588 303.703C596.131 302.631 596.949 301.756 597.941 301.184C598.756 300.633 599.641 300.215 600.567 299.943C604.721 309.508 613.344 329.514 615.754 334.992C618.517 341.368 599.078 370.981 594.041 378.556Z" fill="#020202"/>
<path d="M565.333 559.639C563.47 560.57 561.931 562.13 560.943 564.09C560.738 564.525 560.676 565.023 560.767 565.502C560.91 565.857 561.123 566.173 561.391 566.428C561.658 566.683 561.974 566.871 562.315 566.979C567.253 569.118 572.838 568.712 577.992 567.685C583.165 566.301 588.447 565.463 593.767 565.181C594.217 565.26 594.678 565.232 595.118 565.099C595.557 564.966 595.965 564.732 596.314 564.411C596.643 563.875 596.801 563.236 596.765 562.592C596.979 557.542 596.176 552.503 594.414 547.828C594.531 548.128 580.441 548.748 579.226 549.647C576.993 551.337 575.131 553.498 572.74 555.06C570.349 556.622 567.821 558.099 565.333 559.639Z" fill="#030319"/>
<path d="M584.067 449.509C583.971 469.203 585.387 488.872 588.299 508.308C588.77 511.689 589.279 515.048 589.906 518.407C594.531 543.228 594.903 549.54 594.903 549.54H576.326C576.326 549.54 562.609 479.251 557.514 463.246C553.66 451.116 550.653 438.684 548.519 426.058C547.687 420.075 548.365 413.957 550.479 408.362C551.196 406.157 552.22 404.086 553.516 402.222C556.04 399.178 559.2 396.843 562.726 395.417C570.228 391.713 578.343 389.718 586.575 389.554C587.515 389.467 588.457 389.691 589.279 390.196C589.806 390.668 590.222 391.27 590.494 391.951C592.905 397.3 592.454 403.591 591.709 409.497C591.385 412.775 590.728 416.005 589.75 419.125C588.652 422.313 586.928 425.202 585.928 428.433C585.078 431.543 584.578 434.755 584.439 437.997C584.321 441.827 584.145 445.657 584.067 449.509Z" fill="#D6E4E5"/>
<path d="M537.506 433.975C537.897 436.533 538.048 439.128 537.957 441.72C537.878 446.368 538.016 451.017 538.368 455.65C539.407 477.71 542.464 499.685 542.483 521.767C542.483 540.596 541.915 560.281 541.915 560.281C541.915 560.281 556.946 565.331 560.414 561.544L566.195 470.606C567.077 463.738 568.429 456.762 568.88 449.851C569.272 443.839 569.389 438.746 571.447 432.969C573.759 426.55 577.051 420.494 578.835 413.819C579.988 409.544 580.485 405.09 580.304 400.638C580.361 399.273 580.018 397.924 579.324 396.787C578.64 396.013 577.802 395.42 576.875 395.053C566.469 390.004 555.672 384.868 544.286 384.975C543.368 384.892 542.447 385.108 541.641 385.596C540.873 386.289 540.319 387.223 540.054 388.271C535.866 400.339 534.577 413.377 536.311 426.143C536.761 428.904 537.153 431.428 537.506 433.975Z" fill="#D6E4E5"/>
<path d="M481.382 278.974C480.932 276.086 480.99 273.069 480.755 270.137C480.745 268.987 480.461 267.859 479.932 266.863C479.65 266.377 479.224 266.012 478.724 265.828C478.224 265.645 477.682 265.656 477.189 265.858C475.974 266.521 475.935 268.34 475.974 269.816C476.013 271.293 475.66 273.176 474.328 273.454C473.826 273.507 473.321 273.395 472.878 273.133C472.213 272.744 471.64 272.192 471.205 271.519C470.77 270.847 470.484 270.074 470.369 269.26C470.252 268.297 470.369 267.291 470.212 266.329C469.703 263.547 466.411 264.018 464.882 265.473C463.982 266.423 463.251 267.547 462.727 268.789C461.619 270.892 460.807 273.164 460.316 275.529C458.69 285.179 469.35 287.255 473.857 293.417C474.505 294.374 475.226 295.268 476.013 296.092C476.778 296.808 477.702 297.292 478.693 297.495C479.684 297.698 480.706 297.613 481.657 297.247C482.602 296.867 483.438 296.218 484.079 295.368C484.719 294.519 485.141 293.498 485.302 292.412C485.831 288.817 483.44 285.586 482.264 282.162C481.879 281.133 481.583 280.065 481.382 278.974Z" fill="#FCD4D0"/>
<path d="M558.023 253.897C558.207 254.169 558.346 254.473 558.435 254.796C558.571 255.451 558.571 256.131 558.435 256.786C557.64 260.655 557.096 264.58 556.808 268.533C556.656 269.64 556.849 270.77 557.357 271.742C558.166 272.683 559.274 273.249 560.453 273.326C562.17 273.626 563.908 273.755 565.646 273.711C566.332 273.711 567.175 273.711 567.606 274.331C567.752 274.613 567.832 274.928 567.841 275.251C567.922 276.726 567.659 278.198 567.077 279.531C566.72 280.175 566.543 280.918 566.567 281.671C566.704 283.04 568.527 282.912 569.468 282.976C573.034 283.168 576.62 283.19 580.187 282.976C580.803 283.005 581.416 282.865 581.97 282.569C582.93 281.949 583.146 280.558 583.42 279.381C584.635 273.925 588.496 269.688 590.573 264.553C591.642 261.817 592.205 258.877 592.229 255.902C592.252 252.927 591.736 249.977 590.71 247.221C589.724 244.596 588.317 242.183 586.556 240.096C584.949 238.149 581.852 237.743 579.618 237.229C575.699 236.33 571.349 236.074 567.861 238.363C563.941 240.931 562.139 246.194 558.2 248.655C557.514 249.083 556.671 249.511 556.436 250.345C556.375 250.769 556.409 251.203 556.536 251.609C556.662 252.015 556.877 252.382 557.161 252.678C557.416 253.106 557.749 253.469 558.023 253.897Z" fill="#FCD4D0"/>
<path d="M568.938 236.865C569.026 237.528 569.211 238.171 569.487 238.77C570.741 241.615 572.387 240.909 574.641 241.273C577.384 241.808 579.168 245.167 579.736 247.906C580.226 251.227 580.126 254.619 579.442 257.898C580.046 257.355 580.79 257.032 581.57 256.975C582.35 256.917 583.127 257.128 583.792 257.578C584.44 258.07 584.943 258.756 585.242 259.553C585.541 260.35 585.623 261.224 585.478 262.071C585.316 262.921 584.94 263.706 584.394 264.337C583.847 264.968 583.15 265.42 582.381 265.644C581.617 265.858 580.716 265.901 580.245 266.586C579.99 267.08 579.881 267.647 579.932 268.212C579.932 271.849 580.069 275.808 582.185 278.632C585.125 278.311 587.359 275.744 589.554 273.604C592.669 270.566 596.236 268.083 599.234 264.895C602.413 261.85 604.386 257.578 604.741 252.977C604.839 245.595 598.862 239.904 596.667 232.95C596.275 231.384 595.757 229.859 595.119 228.392C594.531 227.385 593.758 226.523 592.847 225.862C591.936 225.201 590.909 224.756 589.831 224.554C588.753 224.353 587.649 224.4 586.588 224.692C585.528 224.985 584.536 225.516 583.675 226.252C582.095 225.117 580.245 224.513 578.354 224.513C576.463 224.513 574.614 225.117 573.034 226.252C571.587 227.501 570.453 229.128 569.737 230.984C569.021 232.839 568.746 234.863 568.938 236.865Z" fill="#030319"/>
<path d="M597.627 318.045C596.817 324.94 596.555 331.899 596.843 338.843C597.02 345.626 597.314 352.366 597.569 359.149C596.373 364.991 595.041 370.832 593.649 376.609C592.766 381.328 591.309 385.898 589.319 390.196C588.314 392.264 586.988 394.125 585.399 395.695C583.835 397.196 582.054 398.404 580.128 399.269C575.604 401.097 570.769 401.828 565.96 401.408C562.569 401.262 559.203 400.702 555.926 399.739C551.715 398.592 547.805 396.395 544.502 393.32C542.843 391.701 541.393 389.844 540.191 387.8C537.312 382.762 535.572 377.049 535.115 371.131C534.131 361.419 535.279 351.591 538.466 342.459C538.643 341.925 538.839 341.411 539.034 340.876C540.387 337.11 541.739 333.344 543.13 329.578C543.13 329.578 543.13 329.471 543.13 329.429C543.346 328.83 543.561 328.273 543.757 327.696L543.875 327.375L543.11 327.717L542.307 328.038C542.052 328.15 541.79 328.243 541.523 328.316C540.955 328.551 540.347 328.723 539.779 328.894L537.82 329.429C536.703 329.685 535.566 329.921 534.429 330.071L532.881 330.263C518.635 331.633 503.095 325.342 491.18 318.388C487.292 316.228 483.735 313.42 480.638 310.064C479.992 309.316 479.384 308.53 478.815 307.711C477.389 305.66 476.337 303.328 475.719 300.842C475.288 299.338 475.288 297.725 475.719 296.22C475.747 296.161 475.78 296.103 475.817 296.049C476.246 295.02 476.844 294.085 477.581 293.289C479.391 291.123 481.308 289.066 483.322 287.127L483.949 286.528C484.489 286.01 485.124 285.623 485.811 285.394C486.488 285.228 487.189 285.227 487.866 285.389C488.543 285.552 489.18 285.875 489.73 286.335C490.731 287.099 491.663 287.966 492.513 288.924C497.953 294.587 504.406 298.963 511.467 301.776C518.528 304.589 526.045 305.779 533.547 305.271C537.667 305.082 541.713 304.021 545.462 302.147C548.751 300.201 551.806 297.814 554.555 295.044C557.039 292.822 559.407 290.451 561.649 287.94C562.236 287.255 562.844 286.549 563.373 285.8C563.902 285.051 564.235 284.645 564.647 284.067L565.156 283.339C565.603 282.598 566.191 281.97 566.881 281.499C567.869 281.004 568.95 280.77 570.036 280.815C574.288 280.622 578.913 279.745 583.106 279.852H583.557C583.965 279.869 584.371 279.919 584.772 280.002C586.224 280.251 587.582 280.94 588.691 281.991C590.056 283.424 591.302 284.984 592.415 286.656C595.023 289.777 597.071 293.407 598.45 297.355C600.488 303.902 598.568 311.07 597.627 318.045Z" fill="#FFAE58"/>
<path d="M602.526 317.34C602.512 324.76 601.994 332.169 600.978 339.507C600.096 346.118 599.019 352.645 597.569 359.149C597.314 352.366 597.02 345.626 596.843 338.844C596.555 331.899 596.817 324.941 597.627 318.046C598.568 311.092 600.488 303.902 598.509 297.226C597.13 293.278 595.082 289.649 592.474 286.528C591.361 284.856 590.115 283.295 588.75 281.863C592.669 285.094 595.766 291.107 598.352 294.701C602.762 301.014 602.487 309.808 602.526 317.34Z" fill="#FFAE58"/>
<path opacity="0.1" d="M602.526 317.34C602.512 324.76 601.994 332.169 600.978 339.507C600.096 346.118 599.019 352.645 597.569 359.149C597.314 352.366 597.02 345.626 596.843 338.844C596.555 331.899 596.817 324.941 597.627 318.046C598.568 311.092 600.488 303.902 598.509 297.226C597.13 293.278 595.082 289.649 592.474 286.528C591.361 284.856 590.115 283.295 588.75 281.863C592.669 285.094 595.766 291.107 598.352 294.701C602.762 301.014 602.487 309.808 602.526 317.34Z" fill="#020202"/>
<path opacity="0.1" d="M597.627 318.045C596.817 324.94 596.555 331.899 596.843 338.843C597.02 345.626 597.314 352.366 597.569 359.149C596.373 364.991 595.041 370.832 593.649 376.609C592.766 381.328 591.309 385.898 589.319 390.196C588.314 392.264 586.988 394.125 585.399 395.695C583.835 397.196 582.054 398.404 580.128 399.269C575.604 401.097 570.769 401.828 565.96 401.408C562.569 401.262 559.203 400.702 555.926 399.739C551.715 398.592 547.805 396.395 544.502 393.32C542.843 391.701 541.393 389.844 540.191 387.8C537.312 382.762 535.572 377.049 535.115 371.131C534.131 361.419 535.279 351.591 538.466 342.459C538.643 341.925 538.839 341.411 539.034 340.876C540.582 337.192 541.949 333.421 543.13 329.578C543.13 329.578 543.13 329.471 543.13 329.429C543.287 328.787 543.424 328.188 543.561 327.567C543.417 327.637 543.266 327.687 543.11 327.717L542.307 328.038C542.052 328.15 541.79 328.243 541.523 328.316C540.955 328.551 540.347 328.723 539.779 328.894L537.82 329.429C536.703 329.685 535.566 329.921 534.429 330.071L532.881 330.263C518.439 331.868 503.624 325.706 491.18 318.388C487.292 316.228 483.735 313.42 480.638 310.064C479.992 309.316 479.384 308.53 478.815 307.711C477.389 305.66 476.337 303.328 475.719 300.842C475.288 299.338 475.288 297.725 475.719 296.22C475.747 296.161 475.78 296.103 475.817 296.049C476.246 295.02 476.844 294.085 477.581 293.289C479.391 291.123 481.308 289.066 483.322 287.127L483.949 286.528C484.489 286.01 485.124 285.623 485.811 285.394C486.488 285.228 487.189 285.227 487.866 285.389C488.543 285.552 489.18 285.875 489.73 286.335C490.731 287.099 491.663 287.966 492.513 288.924C497.953 294.587 504.406 298.963 511.467 301.776C518.528 304.589 526.045 305.779 533.547 305.271C537.667 305.082 541.713 304.021 545.462 302.147C548.751 300.201 551.806 297.814 554.555 295.044C557.039 292.822 559.407 290.451 561.649 287.94C562.236 287.255 562.844 286.549 563.373 285.8C563.902 285.051 564.235 284.645 564.647 284.067L565.156 283.339C565.603 282.598 566.191 281.97 566.881 281.499C567.869 281.004 568.95 280.77 570.036 280.815C574.288 280.622 578.913 279.745 583.106 279.852H583.557C583.965 279.869 584.371 279.919 584.772 280.002C586.195 280.347 587.533 281.026 588.691 281.991C590.056 283.424 591.302 284.984 592.415 286.656C595.023 289.777 597.071 293.407 598.45 297.355C600.488 303.902 598.568 311.07 597.627 318.045Z" fill="#020202"/>
<path d="M530.687 571.6C528.82 572.524 527.279 574.087 526.297 576.051C526.092 576.486 526.03 576.984 526.121 577.463C526.262 577.817 526.474 578.132 526.742 578.384C527.01 578.636 527.327 578.818 527.669 578.918C532.607 581.058 538.192 580.673 543.444 579.645C548.623 578.26 553.912 577.422 559.238 577.142C559.686 577.219 560.143 577.19 560.579 577.058C561.015 576.925 561.42 576.691 561.766 576.372C562.094 575.835 562.253 575.197 562.217 574.553C562.431 569.503 561.628 564.464 559.865 559.789C559.983 560.089 545.893 560.688 544.698 561.608C542.444 563.298 540.583 565.459 538.192 567.021C535.801 568.583 533.175 569.974 530.687 571.6Z" fill="#030319"/>
<path d="M507.093 311.819C497.706 308.16 488.143 304.544 480.657 297.183C479.793 296.508 479.197 295.498 478.992 294.359C479.058 293.654 479.269 292.975 479.608 292.372C479.947 291.768 480.406 291.255 480.951 290.871C482.29 289.396 483.815 288.135 485.478 287.127C486.31 286.621 487.231 286.313 488.179 286.221C489.128 286.128 490.084 286.255 490.985 286.592C492.24 287.283 493.369 288.218 494.316 289.352C501.209 296.124 509.689 300.673 518.811 302.49C527.688 304.629 537.467 304.758 545.991 300.992C550.929 298.852 561.668 284.666 566.469 286.742C571.27 288.817 569.154 299.28 566.822 302.533C561.786 309.529 549.029 312.846 541.347 314.429C529.919 316.9 518.095 315.999 507.093 311.819Z" fill="#FFAE58"/>
<path d="M581.833 288.688C582.914 288.133 583.873 287.329 584.644 286.332C585.415 285.335 585.98 284.168 586.301 282.911C583.723 282.332 581.08 282.188 578.462 282.483L570.957 282.89L566.019 283.168C562.942 283.36 562.883 284.837 564.059 287.148C564.608 288.239 566.019 289.116 566.607 290.293C567.194 291.47 567.292 292.732 567.998 293.631C569.957 296.199 570.506 294.744 573.034 293.075C575.562 291.406 578.952 290.4 581.833 288.688Z" fill="#FFAE58"/>
<path d="M460.14 91.7293L548.225 81.6299L485.243 108.569L460.14 91.7293Z" fill="#D6E4E5"/>
<path d="M548.225 81.6299L495.727 137.091L485.243 108.569L548.225 81.6299Z" fill="#4CD080"/>
<path d="M548.225 81.6299L495.727 137.091L485.243 108.569L548.225 81.6299Z" fill="url(#paint8_linear_594_2733)"/>
<path d="M474.857 138.995L485.243 108.569L548.225 81.6299L474.857 138.995Z" fill="#D6E4E5"/>
<path d="M548.225 81.6299L485.243 102.685L460.14 91.7293L485.243 108.569L548.225 81.6299Z" fill="url(#paint9_linear_594_2733)"/>
<defs>
<linearGradient id="paint0_linear_594_2733" x1="447.638" y1="266.564" x2="263.884" y2="886.061" gradientUnits="userSpaceOnUse">
<stop offset="0.01"/>
<stop offset="0.13" stop-opacity="0.69"/>
<stop offset="0.25" stop-opacity="0.32"/>
<stop offset="1" stop-opacity="0"/>
</linearGradient>
<linearGradient id="paint1_linear_594_2733" x1="121.891" y1="186.555" x2="473.364" y2="441.271" gradientUnits="userSpaceOnUse">
<stop stop-color="white"/>
<stop offset="1" stop-color="#CBCBCB"/>
</linearGradient>
<linearGradient id="paint2_linear_594_2733" x1="20105.7" y1="11924.4" x2="19400.6" y2="16641.3" gradientUnits="userSpaceOnUse">
<stop offset="0.01"/>
<stop offset="0.13" stop-opacity="0.69"/>
<stop offset="0.25" stop-opacity="0.32"/>
<stop offset="1" stop-opacity="0"/>
</linearGradient>
<linearGradient id="paint3_linear_594_2733" x1="2404.05" y1="991.199" x2="2411.5" y2="1065.21" gradientUnits="userSpaceOnUse">
<stop stop-color="white"/>
<stop offset="1" stop-color="#CBCBCB"/>
</linearGradient>
<linearGradient id="paint4_linear_594_2733" x1="1096.46" y1="1301.55" x2="1106.49" y2="1359.89" gradientUnits="userSpaceOnUse">
<stop stop-color="white"/>
<stop offset="1" stop-color="#CBCBCB"/>
</linearGradient>
<linearGradient id="paint5_linear_594_2733" x1="29510.9" y1="27018.2" x2="44803.5" y2="31182.6" gradientUnits="userSpaceOnUse">
<stop stop-color="white"/>
<stop offset="1" stop-color="#CBCBCB"/>
</linearGradient>
<linearGradient id="paint6_linear_594_2733" x1="513.226" y1="266.393" x2="296.014" y2="305.465" gradientUnits="userSpaceOnUse">
<stop offset="0.01" stop-color="white"/>
<stop offset="1" stop-color="white" stop-opacity="0"/>
</linearGradient>
<linearGradient id="paint7_linear_594_2733" x1="3903.95" y1="4477.59" x2="4059.15" y2="4542.13" gradientUnits="userSpaceOnUse">
<stop stop-color="white"/>
<stop offset="1" stop-color="#CBCBCB"/>
</linearGradient>
<linearGradient id="paint8_linear_594_2733" x1="16377" y1="2071.57" x2="18402.3" y2="4565.73" gradientUnits="userSpaceOnUse">
<stop offset="0.01"/>
<stop offset="0.13" stop-opacity="0.69"/>
<stop offset="0.25" stop-opacity="0.32"/>
<stop offset="1" stop-opacity="0"/>
</linearGradient>
<linearGradient id="paint9_linear_594_2733" x1="23122.7" y1="780.693" x2="23122.7" y2="1946.61" gradientUnits="userSpaceOnUse">
<stop offset="0.01"/>
<stop offset="0.13" stop-opacity="0.69"/>
<stop offset="0.25" stop-opacity="0.32"/>
<stop offset="1" stop-opacity="0"/>
</linearGradient>
</defs>
</svg>
